<svg class="timeline__icon" font-size="3rem" xmlns="http://www.w3.org/2000/svg" height="1em" viewBox="0 0 60 60" width="1em"><g id="Page-1" fill="none" fill-rule="evenodd"><g id="001---School" fill-rule="nonzero"><g id="Icons" transform="translate(1 1)"><path id="Shape" d="m58 56c-.0032948 1.1032019-.8967981 1.9967052-2 2h-54c-.53059053.0028231-1.0395388-.2101411-1.41-.59-.3798589-.3704612-.59282307-.8794095-.59-1.41.0032948-1.1032019.89679813-1.9967052 2-2h54c1.1011688.0081672 1.9918328.8988312 2 2z" fill="#7f8e94"/><path id="Shape" d="m57.41 54.59c-.3704612-.3798589-.8794095-.5928231-1.41-.59l-3-.0000277c1.1011688.0081949 1.9918328.8988589 2 2.0000277-.0032948 1.1032019-.8967981 1.9967052-2 2h3c1.1032019-.0032948 1.9967052-.8967981 2-2 .0028231-.5305905-.2101411-1.0395388-.59-1.41z" fill="#545c60"/><path id="Shape" d="m41 12v18h-24v-18l12-12z" fill="#ff9801"/><path id="Shape" d="m38 9v21h3v-18z" fill="#f57c00"/><path id="Rectangle-path" d="m2 30h54v24h-54z" fill="#ff9801"/><path id="Rectangle-path" d="m53 30h3v24h-3z" fill="#f57c00"/><path id="Shape" d="m17 20v10h-17l7.4-9.25c.37993238-.4729114.9533767-.7486057 1.56-.75z" fill="#ff5722"/><path id="Shape" d="m58 30h-17v-10h8.04c.6066233.0013943 1.1800676.2770886 1.56.75z" fill="#ff5722"/><path id="Shape" d="m50.6 20.75c-.3799324-.4729114-.9533767-.7486057-1.56-.75h-3c.6066233.0013943 1.1800676.2770886 1.56.75l7.4 9.25h3z" fill="#d84315"/><circle id="Oval" cx="29" cy="18" fill="#00bcd4" r="8"/><path id="Shape" d="m29 10c-.5034323.0013583-1.005629.049904-1.5.145 3.7641632.7265899 6.4837629 4.0213519 6.4837629 7.855s-2.7195997 7.1284101-6.4837629 7.855c2.9873733.5766142 6.0432406-.5912461 7.8846263-3.0132663s2.1495108-5.6789024.795012-8.4032768-4.1371319-4.44459998-7.1796383-4.4384569z" fill="#00838f"/><path id="Shape" d="m39 38v2h-20v-2c0-2.209139 1.790861-4 4-4h12c2.209139 0 4 1.790861 4 4z" fill="#ff5722"/><path id="Shape" d="m35 34h-3c2.209139 0 4 1.790861 4 4v2h3v-2c0-2.209139-1.790861-4-4-4z" fill="#d84315"/><path id="Rectangle-path" d="m19 40h10v14h-10z" fill="#a0522d"/><path id="Rectangle-path" d="m29 40h10v14h-10z" fill="#a0522d"/><path id="Rectangle-path" d="m36 40h3v14h-3z" fill="#783e22"/><path id="Shape" d="m14 37v3h-6v-3c0-1.6568542 1.34314575-3 3-3 1.6568542 0 3 1.3431458 3 3z" fill="#00838f"/><path id="Shape" d="m14 40v7c0 .5522847-.4477153 1-1 1h-4c-.55228475 0-1-.4477153-1-1v-7z" fill="#00bcd4"/><path id="Shape" d="m50 40v7c0 .5522847-.4477153 1-1 1h-4c-.5522847 0-1-.4477153-1-1v-7z" fill="#00bcd4"/><path id="Shape" d="m50 37v3h-6v-3c0-1.6568542 1.3431458-3 3-3s3 1.3431458 3 3z" fill="#00838f"/></g><g id="Icons_copy" fill="#000"><path id="Shape" d="m58 54.184v-22.184h1c.3845434.0001443.7351047-.2202266.9016819-.5668181.1665772-.3465916.1196578-.7579978-.1206819-1.0581819l-7.4-9.25c-.5682418-.7125485-1.4306159-1.1267974-2.342-1.125h-7.039v-4.586l.293.293c.3923789.3789722 1.0160848.3735524 1.4018186-.0121814s.3911536-1.0094397.0121814-1.4018186l-14-14c-.3904999-.39038194-1.0235001-.39038194-1.414 0l-14 14c-.3789722.3923789-.3735524 1.0160848.0121814 1.4018186s1.0094397.3911536 1.4018186.0121814l.293-.293v4.586h-7.039c-.9116202-.0018499-1.7741462.4128402-2.342 1.126l-7.4 9.249c-.24033967.3001841-.28725909.7115903-.12068187 1.0581819.16657722.3465915.51713846.5669624.90168187.5668181h1v22.184c-1.37654748.4848523-2.2026937 1.8918441-1.95538732 3.330178.24730637 1.4383339 1.49595006 2.4885874 2.95538732 2.485822h54c1.4594373.0027654 2.7080809-1.0474881 2.9553873-2.485822s-.5788398-2.8453257-1.9553873-3.330178zm-19-14.184h-8v-4h5c1.6568542 0 3 1.3431458 3 3zm-10 0h-8v-1c0-1.6568542 1.3431458-3 3-3h5zm-8 2h8v12h-8zm10 0h8v12h-8zm10-1v-2c-.0033061-2.7600532-2.2399468-4.9966939-5-5h-12c-2.7600532.0033061-4.9966939 2.2399468-5 5v15h-15v-22h52v22h-15zm9.039-19c.3037783-.000114.5911385.1378631.781.375l6.1 7.625h-13.92v-8.0000001zm-20.039-19.586 11 11v16.586h-22v-16.586zm-20.82 19.962c.18966286-.2375116.47705309-.375871.781-.376h7.039v8h-13.92zm47.82 35.624h-54c-.55228475 0-1-.4477153-1-1s.44771525-1 1-1h54c.5522847 0 1 .4477153 1 1s-.4477153 1-1 1z"/><path id="Shape" d="m30 28c4.9705627 0 9-4.0294373 9-9s-4.0294373-9-9-9-9 4.0294373-9 9c.006061 4.9680501 4.0319499 8.993939 9 9zm0-16c3.8659932 0 7 3.1340068 7 7s-3.1340068 7-7 7-7-3.1340068-7-7c.0044086-3.8641657 3.1358343-6.9955914 7-7z"/><path id="Shape" d="m31.293 21.707c.3923789.3789722 1.0160848.3735524 1.4018186-.0121814s.3911536-1.0094397.0121814-1.4018186l-1.707-1.707v-2.586c0-.5522847-.4477153-1-1-1s-1 .4477153-1 1v3c.0000566.2651948.1054506.5195073.293.707z"/><path id="Shape" d="m12 34c-2.209139 0-4 1.790861-4 4v10c0 1.1045695.8954305 2 2 2h4c1.1045695 0 2-.8954305 2-2v-10c0-2.209139-1.790861-4-4-4zm0 2c1.1045695 0 2 .8954305 2 2v2h-4v-2c0-1.1045695.8954305-2 2-2zm-2 12v-6h4v6z"/><path id="Shape" d="m48 34c-2.209139 0-4 1.790861-4 4v10c0 1.1045695.8954305 2 2 2h4c1.1045695 0 2-.8954305 2-2v-10c0-2.209139-1.790861-4-4-4zm0 2c1.1045695 0 2 .8954305 2 2v2h-4v-2c0-1.1045695.8954305-2 2-2zm-2 12v-6h4v6z"/></g></g></g></svg>