<svg xmlns="http://www.w3.org/2000/svg" height="484pt" viewBox="1 1 484 484.906" width="484pt"><path d="m242.953125 363.75 169.75-48.5v-258.667969l-169.75 64.667969zm0 0" fill="#cfdfe8"/><path d="m242.953125 363.75-169.75-48.5v-258.667969l169.75 64.667969zm0 0" fill="#87cee9"/><path d="m242.953125 363.75h-202.082031v-242.5h32.332031v194zm0 0" fill="#e9686a"/><path d="m40.871094 363.75v-242.5h32.332031v-32.332031h-48.5c-8.929687 0-16.167969 7.238281-16.167969 16.164062v274.835938c0 8.929687 7.238282 16.167969 16.167969 16.167969h218.25v-32.335938zm0 0" fill="#fdbd40"/><path d="m242.953125 363.75h202.082031v-242.5h-32.332031v194zm0 0" fill="#fdbd40"/><path d="m445.035156 363.75v-242.5h-32.332031v-32.332031h48.5c8.929687 0 16.167969 7.238281 16.167969 16.164062v274.835938c0 8.929687-7.238282 16.167969-16.167969 16.167969h-218.25v-32.335938zm0 0" fill="#e9686a"/><g fill="#5f79ba"><path d="m202.535156 396.082031h80.835938c0 17.859375-14.476563 32.335938-32.335938 32.335938h-16.164062c-17.859375 0-32.335938-14.476563-32.335938-32.335938zm0 0"/><path d="m210.625 161.671875c-.808594-.003906-1.609375-.125-2.382812-.363281l-105.082032-32.335938c-4.265625-1.3125-6.660156-5.832031-5.347656-10.097656s5.832031-6.660156 10.097656-5.347656l105.085938 32.332031c4.265625 1.3125 6.660156 5.839844 5.34375 10.105469-1.042969 3.390625-4.171875 5.703125-7.714844 5.707031zm0 0"/><path d="m210.625 194.003906c-.808594 0-1.609375-.121094-2.382812-.363281l-105.082032-32.332031c-4.265625-1.3125-6.660156-5.835938-5.347656-10.101563s5.832031-6.660156 10.097656-5.347656l105.085938 32.332031c4.265625 1.316406 6.660156 5.839844 5.34375 10.109375-1.042969 3.386719-4.171875 5.699219-7.714844 5.703125zm0 0"/><path d="m210.625 226.335938c-.808594 0-1.609375-.121094-2.382812-.363282l-105.082032-32.332031c-4.265625-1.3125-6.660156-5.832031-5.347656-10.101563 1.3125-4.265624 5.832031-6.660156 10.097656-5.347656l105.085938 32.335938c4.265625 1.3125 6.660156 5.839844 5.34375 10.105468-1.042969 3.386719-4.171875 5.699219-7.714844 5.703126zm0 0"/><path d="m210.625 258.671875c-.808594-.003906-1.609375-.125-2.382812-.363281l-105.082032-32.335938c-4.265625-1.3125-6.660156-5.832031-5.347656-10.097656s5.832031-6.660156 10.097656-5.347656l105.085938 32.332031c4.265625 1.3125 6.660156 5.839844 5.34375 10.105469-1.042969 3.390625-4.171875 5.703125-7.714844 5.707031zm0 0"/><path d="m210.625 291.003906c-.808594 0-1.609375-.121094-2.382812-.363281l-105.082032-32.332031c-4.265625-1.3125-6.660156-5.835938-5.347656-10.101563s5.832031-6.660156 10.097656-5.347656l105.085938 32.332031c4.265625 1.316406 6.660156 5.839844 5.34375 10.109375-1.042969 3.386719-4.171875 5.699219-7.714844 5.703125zm0 0"/><path d="m210.625 323.335938c-.808594 0-1.609375-.121094-2.382812-.363282l-105.082032-32.332031c-4.265625-1.3125-6.660156-5.832031-5.347656-10.101563 1.3125-4.265624 5.832031-6.660156 10.097656-5.347656l105.085938 32.335938c4.265625 1.3125 6.660156 5.839844 5.34375 10.105468-1.042969 3.386719-4.171875 5.703126-7.714844 5.703126zm0 0"/><path d="m380.371094 218.25-105.085938 32.332031v-97l105.085938-32.332031zm0 0"/><path d="m275.28125 291.003906c-4.464844-.003906-8.078125-3.628906-8.074219-8.09375.003907-3.542968 2.316407-6.675781 5.703125-7.71875l105.082032-32.332031c4.269531-1.3125 8.789062 1.082031 10.101562 5.347656s-1.082031 8.789063-5.347656 10.097657l-105.082032 32.335937c-.773437.242187-1.574218.363281-2.382812.363281zm0 0"/></g><path d="m315.703125 32.332031c-13.386719-.015625-24.234375-10.863281-24.25-24.25 0-4.460937-3.617187-8.082031-8.082031-8.082031s-8.085938 3.617188-8.085938 8.082031c-.011718 13.386719-10.863281 24.238281-24.25 24.25-4.460937 0-8.082031 3.621094-8.082031 8.085938 0 4.464843 3.617187 8.082031 8.082031 8.082031 13.386719.015625 24.238282 10.863281 24.25 24.25 0 4.464844 3.621094 8.082031 8.085938 8.082031s8.082031-3.617187 8.082031-8.082031c.015625-13.386719 10.863281-24.234375 24.25-24.25 4.464844 0 8.085937-3.617188 8.085937-8.082031 0-4.464844-3.621093-8.085938-8.085937-8.085938zm-32.332031 16.417969c-2.359375-3.167969-5.164063-5.976562-8.335938-8.332031 3.171875-2.359375 5.976563-5.167969 8.335938-8.335938 2.355468 3.167969 5.164062 5.976563 8.332031 8.335938-3.167969 2.355469-5.976563 5.164062-8.332031 8.332031zm0 0" fill="#fcf05a"/><path d="m137.871094 436.5c-13.386719-.015625-24.238282-10.863281-24.25-24.25 0-4.464844-3.621094-8.082031-8.085938-8.082031-4.460937 0-8.082031 3.617187-8.082031 8.082031-.015625 13.386719-10.863281 24.238281-24.25 24.25-4.464844 0-8.082031 3.621094-8.082031 8.085938 0 4.460937 3.617187 8.082031 8.082031 8.082031 13.386719.015625 24.234375 10.863281 24.25 24.25 0 4.464843 3.617187 8.082031 8.082031 8.082031s8.085938-3.617188 8.085938-8.082031c.015625-13.386719 10.863281-24.234375 24.25-24.25 4.460937 0 8.082031-3.617188 8.082031-8.082031 0-4.464844-3.621094-8.085938-8.082031-8.085938zm-32.335938 16.417969c-2.355468-3.167969-5.164062-5.976563-8.332031-8.335938 3.167969-2.355469 5.976563-5.164062 8.332031-8.332031 2.359375 3.167969 5.167969 5.976562 8.335938 8.332031-3.167969 2.359375-5.976563 5.167969-8.335938 8.335938zm0 0" fill="#fcf05a"/><path d="m461.203125 80.832031h-40.417969v-24.25c0-4.464843-3.621094-8.082031-8.085937-8.082031-.984375 0-1.957031.179688-2.875.527344l-166.871094 63.570312-166.871094-63.570312c-4.175781-1.585938-8.847656.507812-10.433593 4.683594-.351563.917968-.527344 1.890624-.527344 2.871093v24.25h-40.417969c-13.386719.015625-24.234375 10.863281-24.25 24.25v274.835938c.015625 13.386719 10.863281 24.234375 24.25 24.25h170.566406c3.867188 18.800781 20.40625 32.304687 39.601563 32.332031h16.164062c19.199219-.027344 35.738282-13.53125 39.601563-32.332031h170.566406c13.386719-.015625 24.234375-10.863281 24.25-24.25v-274.835938c-.015625-13.386719-10.863281-24.234375-24.25-24.25zm-390.222656 242.191407 114.257812 32.644531h-136.285156v-226.335938h16.167969v185.917969c0 3.609375 2.390625 6.78125 5.859375 7.773438zm343.945312 0c3.46875-.992188 5.859375-4.164063 5.859375-7.773438v-185.914062h16.167969v226.332031h-136.285156zm-10.304687-13.871094-153.585938 43.882812v-226.214844l153.585938-58.507812zm-323.335938-240.839844 153.585938 58.507812v226.214844l-153.585938-43.882812zm-56.582031 319.6875c-4.460937-.007812-8.078125-3.621094-8.082031-8.082031v-274.835938c.003906-4.460937 3.621094-8.078125 8.082031-8.082031h40.417969v16.167969h-24.25c-4.464844 0-8.085938 3.617187-8.085938 8.082031v242.5c0 4.464844 3.621094 8.082031 8.085938 8.082031h194v16.167969zm226.332031 32.332031h-16.167968c-10.269532-.011719-19.425782-6.484375-22.863282-16.164062h61.898438c-3.4375 9.679687-12.59375 16.15625-22.867188 16.164062zm218.25-40.414062c-.003906 4.460937-3.621094 8.078125-8.082031 8.082031h-210.167969v-16.167969h194c4.464844 0 8.085938-3.617187 8.085938-8.082031v-242.5c0-4.464844-3.621094-8.082031-8.085938-8.082031h-24.25v-16.167969h40.417969c4.460937.007812 8.078125 3.621094 8.082031 8.082031zm0 0"/><path d="m103.160156 128.972656 105.082032 32.335938c4.265624 1.3125 8.789062-1.082032 10.101562-5.347656 1.3125-4.265626-1.082031-8.789063-5.347656-10.101563l-105.085938-32.332031c-4.265625-1.3125-8.785156 1.082031-10.097656 5.347656s1.082031 8.785156 5.347656 10.097656zm0 0"/><path d="m103.160156 161.308594 105.082032 32.332031c4.265624 1.3125 8.789062-1.082031 10.101562-5.347656s-1.082031-8.789063-5.347656-10.101563l-105.085938-32.332031c-4.265625-1.3125-8.785156 1.082031-10.097656 5.347656s1.082031 8.789063 5.347656 10.101563zm0 0"/><path d="m103.160156 193.640625 105.082032 32.332031c4.265624 1.3125 8.789062-1.082031 10.101562-5.347656s-1.082031-8.785156-5.347656-10.097656l-105.085938-32.335938c-4.265625-1.3125-8.785156 1.082032-10.097656 5.347656-1.3125 4.269532 1.082031 8.789063 5.347656 10.101563zm0 0"/><path d="m103.160156 225.972656 105.082032 32.335938c4.265624 1.3125 8.789062-1.082032 10.101562-5.347656 1.3125-4.265626-1.082031-8.789063-5.347656-10.101563l-105.085938-32.332031c-4.265625-1.3125-8.785156 1.082031-10.097656 5.347656s1.082031 8.785156 5.347656 10.097656zm0 0"/><path d="m103.160156 258.308594 105.082032 32.332031c4.265624 1.3125 8.789062-1.082031 10.101562-5.347656s-1.082031-8.789063-5.347656-10.101563l-105.085938-32.332031c-4.265625-1.3125-8.785156 1.082031-10.097656 5.347656s1.082031 8.789063 5.347656 10.101563zm0 0"/><path d="m103.160156 290.640625 105.082032 32.332031c4.265624 1.3125 8.789062-1.082031 10.101562-5.347656s-1.082031-8.785156-5.347656-10.097656l-105.085938-32.335938c-4.265625-1.3125-8.785156 1.082032-10.097656 5.347656-1.3125 4.269532 1.082031 8.789063 5.347656 10.101563zm0 0"/><path d="m275.285156 258.667969c.808594 0 1.609375-.121094 2.378906-.359375l105.082032-32.335938c3.394531-1.039062 5.707031-4.175781 5.707031-7.722656v-97c0-4.464844-3.617187-8.082031-8.082031-8.082031-.804688 0-1.605469.121093-2.378906.359375l-105.082032 32.332031c-3.390625 1.042969-5.707031 4.175781-5.707031 7.726563v97c0 4.460937 3.621094 8.078124 8.082031 8.082031zm8.085938-99.113281 88.914062-27.359376v80.082032l-88.914062 27.363281zm0 0"/><path d="m377.992188 242.859375-105.082032 32.332031c-4.265625 1.3125-6.660156 5.835938-5.347656 10.101563s5.832031 6.660156 10.101562 5.347656l105.082032-32.332031c4.265625-1.3125 6.660156-5.835938 5.347656-10.101563s-5.832031-6.660156-10.101562-5.347656zm0 0"/><path d="m251.035156 48.5c13.386719.015625 24.238282 10.863281 24.25 24.25 0 4.464844 3.621094 8.082031 8.085938 8.082031s8.082031-3.617187 8.082031-8.082031c.015625-13.386719 10.863281-24.234375 24.25-24.25 4.464844 0 8.082031-3.617188 8.082031-8.082031 0-4.464844-3.617187-8.085938-8.082031-8.085938-13.386719-.015625-24.234375-10.863281-24.25-24.25 0-4.460937-3.617187-8.082031-8.082031-8.082031s-8.085938 3.617188-8.085938 8.082031c-.015625 13.386719-10.863281 24.238281-24.25 24.25-4.464844 0-8.082031 3.621094-8.082031 8.085938 0 4.464843 3.617187 8.082031 8.082031 8.082031zm32.335938-16.417969c2.355468 3.167969 5.164062 5.976563 8.332031 8.335938-3.167969 2.355469-5.976563 5.164062-8.332031 8.332031-2.359375-3.167969-5.164063-5.976562-8.335938-8.332031 3.167969-2.359375 5.976563-5.167969 8.335938-8.335938zm0 0"/><path d="m97.453125 412.25c-.015625 13.386719-10.863281 24.238281-24.25 24.25-4.464844 0-8.082031 3.621094-8.082031 8.085938 0 4.460937 3.617187 8.082031 8.082031 8.082031 13.386719.015625 24.234375 10.863281 24.25 24.25 0 4.464843 3.617187 8.082031 8.082031 8.082031s8.085938-3.617188 8.085938-8.082031c.015625-13.386719 10.863281-24.234375 24.25-24.25 4.460937 0 8.082031-3.617188 8.082031-8.082031 0-4.464844-3.617187-8.085938-8.082031-8.085938-13.386719-.015625-24.238282-10.863281-24.25-24.25 0-4.464844-3.621094-8.082031-8.085938-8.082031s-8.082031 3.617187-8.082031 8.082031zm16.417969 32.335938c-3.167969 2.355468-5.976563 5.164062-8.335938 8.332031-2.355468-3.167969-5.164062-5.976563-8.332031-8.332031 3.167969-2.359376 5.976563-5.167969 8.332031-8.335938 2.359375 3.167969 5.167969 5.976562 8.335938 8.335938zm0 0"/></svg>