<?xml version="1.0" encoding="UTF-8"?>
<svg  xmlns="http://www.w3.org/2000/svg" xmlns:xlink="http://www.w3.org/1999/xlink" viewBox="0 0 24 24" width="30px" height="30px">
<g id="surface125409431">
<path style=" stroke:none;fill-rule:nonzero;fill:rgb(100%,100%,100%);fill-opacity:1;" d="M 0.5 2.5 L 3.5 4.5 L 3.5 14.5 L 0.5 12.5 Z M 0.5 2.5 "/>
<path style=" stroke:none;fill-rule:nonzero;fill:rgb(100%,100%,100%);fill-opacity:1;" d="M 23.5 10 L 20.5 12 L 20.5 18.5 L 23.5 16.5 Z M 23.5 10 "/>
<path style=" stroke:none;fill-rule:nonzero;fill:rgb(100%,100%,100%);fill-opacity:1;" d="M 23.5 3 L 20.5 5 L 20.5 8.5 L 23.5 6.5 Z M 23.5 3 "/>
<path style=" stroke:none;fill-rule:nonzero;fill:rgb(100%,100%,100%);fill-opacity:1;" d="M 17.5 2.5 L 14.5 4.5 L 14.5 14.5 L 17.5 12.5 Z M 17.5 2.5 "/>
<path style=" stroke:none;fill-rule:nonzero;fill:rgb(100%,100%,100%);fill-opacity:1;" d="M 0.5 6 L 9 11.5 L 9 8 L 0.5 2.5 Z M 0.5 6 "/>
<path style=" stroke:none;fill-rule:nonzero;fill:rgb(100%,100%,100%);fill-opacity:1;" d="M 17.5 6 L 9 11.5 L 9 8 L 17.5 2.5 Z M 17.5 6 "/>
<path style=" stroke:none;fill-rule:nonzero;fill:rgb(100%,100%,100%);fill-opacity:1;" d="M 17.5 13 L 9 18.5 L 9 15 L 17.5 9.5 Z M 17.5 13 "/>
<path style=" stroke:none;fill-rule:nonzero;fill:rgb(100%,100%,100%);fill-opacity:1;" d="M 23.5 17 L 15 22.5 L 15 19 L 23.5 13.5 Z M 23.5 17 "/>
<path style=" stroke:none;fill-rule:nonzero;fill:rgb(100%,100%,100%);fill-opacity:1;" d="M 15 18.882812 L 9 15 L 9 18.5 L 15 22.382812 Z M 15 18.882812 "/>
</g>
</svg>
