<?xml version="1.0" encoding="UTF-8"?>
<svg xmlns="http://www.w3.org/2000/svg" xmlns:xlink="http://www.w3.org/1999/xlink" viewBox="0 0 24 24" width="30px" height="30px">
<g id="surface125414847">
<path style=" stroke:none;fill-rule:nonzero;fill:rgb(100%,100%,100%);fill-opacity:1;" d="M 14.960938 3.839844 C 14.734375 3.835938 14.539062 3.921875 14.4375 4.171875 C 14.265625 4.589844 14.695312 4.996094 14.847656 5.210938 C 14.953125 5.359375 15.09375 5.527344 15.171875 5.691406 C 15.222656 5.804688 15.230469 5.914062 15.273438 6.03125 C 15.378906 6.316406 15.550781 6.644531 15.6875 6.910156 C 15.753906 7.042969 15.832031 7.183594 15.921875 7.304688 C 15.976562 7.378906 16.066406 7.410156 16.082031 7.523438 C 15.992188 7.652344 15.984375 7.847656 15.9375 8.011719 C 15.707031 8.730469 15.792969 9.628906 16.125 10.164062 C 16.226562 10.328125 16.46875 10.679688 16.800781 10.546875 C 17.089844 10.425781 17.023438 10.0625 17.109375 9.738281 C 17.125 9.664062 17.113281 9.609375 17.152344 9.5625 L 17.152344 9.578125 C 17.238281 9.753906 17.328125 9.929688 17.414062 10.105469 C 17.613281 10.417969 17.957031 10.746094 18.25 10.96875 C 18.402344 11.085938 18.523438 11.285156 18.71875 11.351562 L 18.71875 11.335938 L 18.703125 11.335938 C 18.667969 11.277344 18.609375 11.25 18.558594 11.203125 C 18.445312 11.09375 18.316406 10.953125 18.222656 10.824219 C 17.953125 10.460938 17.71875 10.0625 17.503906 9.652344 C 17.402344 9.453125 17.3125 9.234375 17.226562 9.035156 C 17.191406 8.957031 17.191406 8.839844 17.121094 8.800781 C 17.027344 8.949219 16.886719 9.066406 16.816406 9.238281 C 16.699219 9.515625 16.683594 9.855469 16.640625 10.207031 C 16.613281 10.21875 16.625 10.210938 16.609375 10.222656 C 16.40625 10.171875 16.332031 9.960938 16.257812 9.78125 C 16.066406 9.328125 16.03125 8.589844 16.199219 8.066406 C 16.242188 7.929688 16.441406 7.503906 16.359375 7.378906 C 16.324219 7.253906 16.195312 7.179688 16.125 7.085938 C 16.039062 6.96875 15.953125 6.8125 15.890625 6.675781 C 15.734375 6.320312 15.585938 5.90625 15.421875 5.546875 C 15.339844 5.375 15.207031 5.203125 15.097656 5.046875 C 14.976562 4.878906 14.839844 4.753906 14.746094 4.546875 C 14.714844 4.476562 14.667969 4.359375 14.71875 4.285156 C 14.730469 4.234375 14.753906 4.214844 14.804688 4.199219 C 14.890625 4.132812 15.125 4.21875 15.214844 4.257812 C 15.449219 4.355469 15.648438 4.449219 15.84375 4.578125 C 15.941406 4.640625 16.035156 4.765625 16.152344 4.800781 L 16.285156 4.800781 C 16.492188 4.847656 16.722656 4.8125 16.914062 4.875 C 17.253906 4.976562 17.5625 5.136719 17.835938 5.3125 C 18.683594 5.84375 19.375 6.605469 19.84375 7.507812 C 19.921875 7.65625 19.957031 7.796875 20.023438 7.949219 C 20.15625 8.261719 20.328125 8.582031 20.460938 8.886719 C 20.59375 9.191406 20.726562 9.5 20.914062 9.75 C 21.015625 9.886719 21.402344 9.957031 21.574219 10.03125 C 21.699219 10.082031 21.898438 10.136719 22.015625 10.207031 C 22.238281 10.339844 22.453125 10.5 22.660156 10.648438 C 22.765625 10.722656 23.082031 10.878906 23.101562 11.015625 C 22.585938 11 22.191406 11.046875 21.855469 11.191406 C 21.757812 11.230469 21.605469 11.230469 21.589844 11.351562 C 21.640625 11.40625 21.652344 11.488281 21.691406 11.554688 C 21.773438 11.683594 21.90625 11.859375 22.03125 11.953125 C 22.164062 12.050781 22.296875 12.15625 22.441406 12.246094 C 22.691406 12.398438 22.972656 12.484375 23.214844 12.640625 C 23.359375 12.730469 23.503906 12.84375 23.640625 12.945312 C 23.710938 13 23.757812 13.078125 23.847656 13.109375 L 23.847656 13.09375 C 23.800781 13.035156 23.789062 12.953125 23.746094 12.890625 L 23.550781 12.699219 C 23.367188 12.453125 23.128906 12.234375 22.878906 12.054688 C 22.679688 11.910156 22.230469 11.714844 22.148438 11.484375 L 22.132812 11.46875 C 22.273438 11.453125 22.441406 11.398438 22.570312 11.363281 C 22.792969 11.304688 22.988281 11.320312 23.214844 11.261719 C 23.316406 11.234375 23.421875 11.203125 23.523438 11.175781 L 23.523438 11.113281 C 23.410156 11 23.328125 10.839844 23.203125 10.734375 C 22.875 10.453125 22.515625 10.175781 22.144531 9.941406 C 21.941406 9.8125 21.6875 9.730469 21.472656 9.621094 C 21.398438 9.582031 21.273438 9.5625 21.222656 9.503906 C 21.109375 9.359375 21.046875 9.175781 20.957031 9.003906 C 20.773438 8.652344 20.59375 8.265625 20.433594 7.890625 C 20.320312 7.640625 20.25 7.386719 20.109375 7.160156 C 19.445312 6.066406 18.726562 5.402344 17.617188 4.753906 C 17.382812 4.617188 17.097656 4.5625 16.796875 4.492188 C 16.636719 4.480469 16.476562 4.472656 16.3125 4.460938 C 16.214844 4.421875 16.113281 4.300781 16.019531 4.242188 C 15.789062 4.097656 15.335938 3.84375 14.960938 3.839844 Z M 16.546875 5.429688 C 16.441406 5.429688 16.363281 5.441406 16.285156 5.460938 L 16.285156 5.476562 L 16.300781 5.476562 C 16.351562 5.578125 16.441406 5.648438 16.503906 5.738281 C 16.554688 5.839844 16.601562 5.945312 16.648438 6.046875 L 16.664062 6.03125 C 16.753906 5.96875 16.796875 5.863281 16.796875 5.710938 C 16.761719 5.671875 16.753906 5.625 16.726562 5.578125 C 16.683594 5.515625 16.601562 5.484375 16.546875 5.429688 Z M 0.894531 11.519531 C 0.75 11.523438 0.59375 11.550781 0.421875 11.605469 C 0.140625 11.691406 0 11.863281 0 12.210938 L 0 15.839844 L 0.960938 15.839844 L 0.960938 12.296875 L 2.292969 15.328125 C 2.457031 15.703125 2.683594 15.839844 3.125 15.839844 C 3.566406 15.839844 3.78125 15.703125 3.945312 15.328125 L 5.28125 12.375 L 5.28125 15.839844 L 6.238281 15.839844 L 6.238281 12.210938 C 6.238281 11.863281 6.101562 11.691406 5.8125 11.605469 C 5.132812 11.390625 4.671875 11.578125 4.464844 12.042969 L 3.097656 15.121094 L 1.773438 12.042969 C 1.625 11.691406 1.324219 11.5 0.894531 11.519531 Z M 12.597656 11.519531 C 12.21875 11.519531 11.039062 11.566406 11.039062 12.480469 L 11.039062 13.074219 C 11.039062 13.492188 11.410156 13.835938 12.210938 13.921875 C 12.300781 13.925781 12.390625 13.933594 12.480469 13.933594 C 12.480469 13.933594 13.414062 13.914062 13.441406 13.921875 C 13.980469 13.921875 13.921875 14.339844 13.921875 14.398438 L 13.921875 14.878906 C 13.921875 14.945312 13.90625 15.359375 13.433594 15.359375 L 11.039062 15.359375 L 11.039062 15.839844 L 13.445312 15.839844 C 13.757812 15.839844 14.0625 15.773438 14.308594 15.660156 C 14.714844 15.472656 14.878906 15.222656 14.878906 14.894531 L 14.878906 14.207031 C 14.878906 13.46875 13.964844 13.441406 13.441406 13.441406 L 12.480469 13.441406 C 12.101562 13.441406 12.046875 13.210938 12 12.960938 L 12 12.480469 C 12.046875 12.289062 12.128906 12.03125 12.464844 12 L 14.878906 12 L 14.878906 11.519531 Z M 16.3125 11.519531 C 15.601562 11.617188 15.351562 11.96875 15.351562 12.480469 L 15.351562 14.878906 C 15.351562 15.347656 15.613281 15.628906 16.148438 15.773438 C 16.328125 15.824219 16.492188 15.84375 16.644531 15.84375 L 17.714844 15.839844 L 18.34375 15.839844 L 18.878906 16.320312 L 19.957031 16.320312 L 19.214844 15.652344 C 19.5625 15.507812 19.671875 15.285156 19.671875 14.871094 L 19.671875 12.480469 C 19.671875 11.96875 19.339844 11.617188 18.632812 11.519531 Z M 20.160156 11.519531 L 20.160156 14.859375 C 20.160156 15.4375 20.488281 15.765625 21.355469 15.832031 C 21.4375 15.835938 21.519531 15.839844 21.601562 15.839844 L 24 15.839844 L 24 15.359375 L 21.78125 15.359375 C 21.285156 15.359375 21.121094 15.152344 21.121094 14.855469 L 21.121094 11.519531 Z M 16.882812 12 L 18.117188 12 C 18.445312 12 18.664062 12.261719 18.710938 12.480469 C 18.710938 12.480469 18.71875 14.714844 18.71875 14.878906 C 18.71875 15.046875 18.628906 15.121094 18.628906 15.121094 L 18.367188 14.878906 L 17.28125 14.878906 L 17.8125 15.359375 L 16.882812 15.359375 C 16.546875 15.359375 16.359375 15.113281 16.3125 14.878906 L 16.3125 12.527344 C 16.3125 12.273438 16.507812 12 16.882812 12 Z M 6.71875 12.960938 C 6.738281 12.980469 6.71875 15.003906 6.71875 15.046875 C 6.726562 15.464844 7.261719 15.832031 8.09375 15.839844 L 9.601562 15.839844 L 9.601562 15.871094 C 9.601562 15.960938 9.664062 16.261719 9.121094 16.320312 C 9.113281 16.320312 6.726562 16.320312 6.71875 16.320312 L 6.71875 16.800781 L 9.222656 16.800781 C 9.648438 16.785156 10.566406 16.691406 10.558594 15.957031 C 10.558594 15.941406 10.5625 12.960938 10.558594 12.960938 L 9.601562 12.960938 L 9.601562 15.359375 C 9.585938 15.359375 8.410156 15.363281 8.175781 15.359375 C 7.710938 15.351562 7.671875 15.089844 7.679688 14.988281 L 7.679688 12.960938 Z M 6.71875 12.960938 "/>
</g>
</svg>
