<?xml version="1.0" encoding="UTF-8"?>
<svg xmlns="http://www.w3.org/2000/svg" xmlns:xlink="http://www.w3.org/1999/xlink" viewBox="0 0 24 24" width="30px" height="30px">
<g id="surface125055092">
<path style=" stroke:none;fill-rule:evenodd;fill:rgb(100%,100%,100%);fill-opacity:1;" d="M 12.019531 2.015625 C 17.53125 2.015625 22 6.484375 22 11.996094 C 22 17.507812 17.53125 21.972656 12.019531 21.972656 C 6.511719 21.972656 2.042969 17.507812 2.042969 11.996094 C 2.042969 6.484375 6.511719 2.015625 12.019531 2.015625 Z M 12.019531 2.015625 "/>
<path style=" stroke:none;fill-rule:nonzero;fill:rgb(0%,0%,0%);fill-opacity:1;" d="M 18.28125 6.285156 C 17.828125 4.515625 14.890625 3.933594 12.109375 4.921875 C 10.453125 5.507812 8.660156 6.429688 7.375 7.636719 C 5.839844 9.070312 5.597656 10.316406 5.699219 10.835938 C 6.054688 12.675781 8.574219 13.878906 9.609375 14.769531 L 9.609375 14.773438 C 9.300781 14.925781 7.066406 16.054688 6.542969 17.214844 C 5.992188 18.433594 6.632812 19.308594 7.054688 19.425781 C 8.367188 19.792969 9.714844 19.136719 10.4375 18.054688 C 11.136719 17.011719 11.078125 15.667969 10.777344 15 C 11.195312 14.886719 11.683594 14.839844 12.304688 14.910156 C 14.054688 15.117188 14.398438 16.210938 14.332031 16.667969 C 14.265625 17.125 13.898438 17.375 13.777344 17.453125 C 13.652344 17.527344 13.617188 17.554688 13.625 17.609375 C 13.640625 17.691406 13.695312 17.6875 13.800781 17.671875 C 13.945312 17.648438 14.722656 17.300781 14.753906 16.453125 C 14.796875 15.382812 13.769531 14.183594 11.949219 14.214844 C 11.203125 14.226562 10.730469 14.300781 10.390625 14.425781 C 10.363281 14.398438 10.339844 14.367188 10.3125 14.339844 C 9.1875 13.140625 7.109375 12.292969 7.199219 10.679688 C 7.230469 10.09375 7.433594 8.546875 11.191406 6.675781 C 14.269531 5.140625 16.734375 5.5625 17.160156 6.5 C 17.769531 7.835938 15.84375 10.320312 12.648438 10.679688 C 11.429688 10.816406 10.785156 10.34375 10.628906 10.167969 C 10.460938 9.984375 10.433594 9.972656 10.371094 10.007812 C 10.269531 10.066406 10.335938 10.230469 10.371094 10.328125 C 10.46875 10.574219 10.859375 11.015625 11.527344 11.234375 C 12.113281 11.429688 13.546875 11.535156 15.273438 10.863281 C 17.210938 10.113281 18.726562 8.03125 18.28125 6.285156 Z M 10.039062 15.320312 C 10.183594 15.855469 10.167969 16.355469 10.015625 16.808594 C 10 16.859375 9.984375 16.910156 9.960938 16.960938 C 9.941406 17.007812 9.921875 17.058594 9.898438 17.105469 C 9.78125 17.347656 9.628906 17.570312 9.4375 17.777344 C 8.855469 18.410156 8.046875 18.648438 7.699219 18.449219 C 7.324219 18.230469 7.511719 17.339844 8.183594 16.628906 C 8.90625 15.863281 9.949219 15.371094 9.949219 15.371094 L 9.945312 15.367188 C 9.976562 15.351562 10.007812 15.335938 10.039062 15.320312 Z M 10.039062 15.320312 "/>
</g>
</svg>
